<svg version="1.0" xmlns="http://www.w3.org/2000/svg" width="346.667" height="346.667" viewBox="0 0 260 260"><path d="M111.5 18.4c-30.4 5.8-56.3 22.3-73.9 46.9-6.4 9-14 25.3-17.2 37.2-2.6 9.2-2.8 11.4-2.8 28.5s.2 19.3 2.8 28.5c9.1 33.2 30.8 59.6 61.1 74.1 33.7 16.2 69 15.9 102.2-1 41.4-21 66.8-68.2 60.9-113.4-2.1-15.6-4.7-24.5-11-37.7C222 57.4 204.2 39.6 179.9 28c-16-7.6-27.1-10.1-45.9-10.6-10.3-.2-17.9.1-22.5 1zm-.7 43.4c14.6 6.3 24.9 6.3 39.9.1 6.7-2.8 9-3.3 16.3-3.3 7.3-.1 9.2.3 13.5 2.6 6.6 3.5 10.8 8 14 15.1 5.6 12.1 2.8 31.4-9 63.2-3.8 10-3.8 10-4.5 31-1 26-3.3 36-9.4 40-4.9 3.2-8.9-1-19.1-20-8.9-16.7-15.8-24.5-21.5-24.5-5.7 0-12.6 7.8-21.5 24.5-11.8 22.1-16.2 25.3-22.5 16.6-4.1-5.8-6.1-17.1-6.9-39.1l-.8-20.5-5.1-13.5c-9.5-25.4-12.3-46.9-7.4-57.5C70.6 68.3 78 61.8 87 58.9c5.1-1.7 16.1-.4 23.8 2.9z"/></svg>