<?xml version="1.0" standalone="no"?>
<!DOCTYPE svg PUBLIC "-//W3C//DTD SVG 20010904//EN"
 "http://www.w3.org/TR/2001/REC-SVG-20010904/DTD/svg10.dtd">
<svg version="1.0" xmlns="http://www.w3.org/2000/svg"
 width="260.000000pt" height="260.000000pt" viewBox="0 0 260.000000 260.000000"
 preserveAspectRatio="xMidYMid meet">
<metadata>
Created by potrace 1.11, written by Peter Selinger 2001-2013
</metadata>
<g transform="translate(0.000000,260.000000) scale(0.100000,-0.100000)"
fill="#000000" stroke="none">
<path d="M1115 2416 c-304 -58 -563 -223 -739 -469 -64 -90 -140 -253 -172
-372 -26 -92 -28 -114 -28 -285 0 -171 2 -193 28 -285 91 -332 308 -596 611
-741 337 -162 690 -159 1022 10 414 210 668 682 609 1134 -21 156 -47 245
-110 377 -116 241 -294 419 -537 535 -160 76 -271 101 -459 106 -103 2 -179
-1 -225 -10z m-7 -434 c146 -63 249 -63 399 -1 67 28 90 33 163 33 73 1 92 -3
135 -26 66 -35 108 -80 140 -151 56 -121 28 -314 -90 -632 -38 -100 -38 -100
-45 -310 -10 -260 -33 -360 -94 -400 -49 -32 -89 10 -191 200 -89 167 -158
245 -215 245 -57 0 -126 -78 -215 -245 -118 -221 -162 -253 -225 -166 -41 58
-61 171 -69 391 l-8 205 -51 135 c-95 254 -123 469 -74 575 38 82 112 147 202
176 51 17 161 4 238 -29z"/>
</g>
</svg>
